<?xml version="1.0" encoding="UTF-8"?>
<!DOCTYPE svg PUBLIC "-//W3C//DTD SVG 1.1//EN" "http://www.w3.org/Graphics/SVG/1.1/DTD/svg11.dtd">
<!-- Creator: CorelDRAW -->
<svg xmlns="http://www.w3.org/2000/svg" xml:space="preserve" width="6.82666in" height="6.82666in" style="shape-rendering:geometricPrecision; text-rendering:geometricPrecision; image-rendering:optimizeQuality; fill-rule:evenodd; clip-rule:evenodd"
viewBox="0 0 6.82666 6.82666"
 xmlns:xlink="http://www.w3.org/1999/xlink">
 <defs>
  <style type="text/css">
   <![CDATA[
    .fil1 {fill:none}
    .fil0 {fill:#424242;fill-rule:nonzero}
   ]]>
  </style>
 </defs>
 <g id="Layer_x0020_1">
  <metadata id="CorelCorpID_0Corel-Layer"/>
  <g id="_253989912">
   <path id="_253990200" class="fil0" d="M5.28252 3.80039c-0.0602638,0 -0.109122,0.0488583 -0.109122,0.109122 0,0.0602638 0.0488583,0.109122 0.109122,0.109122l0.289587 0c0.0602638,0 0.109122,-0.0488583 0.109122,-0.109122 0,-0.0602638 -0.0488583,-0.109122 -0.109122,-0.109122l-0.289587 0z"/>
   <path id="_253989960" class="fil0" d="M5.68122 3.67516c0,-0.0602638 -0.0488583,-0.109122 -0.109122,-0.109122 -0.0602638,0 -0.109122,0.0488583 -0.109122,0.109122l0 0.468709c0,0.0602638 0.0488583,0.109122 0.109122,0.109122 0.0602638,0 0.109122,-0.0488583 0.109122,-0.109122l0 -0.468709z"/>
   <path id="_253989408" class="fil0" d="M3.20926 1.84569c0.569894,0 1.08585,0.231008 1.45933,0.604488 0.373484,0.37348 0.604488,0.889441 0.604488,1.45933 0,0.569894 -0.231004,1.08585 -0.604488,1.45933 -0.37348,0.373484 -0.889437,0.604488 -1.45933,0.604488 -0.569894,0 -1.08585,-0.231004 -1.45933,-0.604484 -0.373476,-0.373484 -0.604484,-0.889441 -0.604484,-1.45933 0,-0.569894 0.231008,-1.08585 0.604488,-1.45933 0.37348,-0.37348 0.889437,-0.604488 1.45933,-0.604488zm1.30972 2.79513c0.054378,0.0254213 0.119079,0.00194882 0.1445,-0.0524331 0.0254213,-0.054378 0.00194882,-0.119075 -0.0524291,-0.1445l-1.14789 -0.535815c-0.000385827,-0.0695315 -0.0287362,-0.132465 -0.0743701,-0.178102 -0.0459488,-0.0459488 -0.109429,-0.074378 -0.179535,-0.074378 -0.0701063,0 -0.133583,0.0284291 -0.179535,0.074378 -0.0459488,0.0459528 -0.074378,0.109437 -0.074378,0.179535 0,0.0701063 0.0284291,0.133587 0.074378,0.179535 0.0459528,0.0459488 0.109429,0.0743819 0.179535,0.0743819 0.0615512,0 0.117996,-0.0219252 0.161953,-0.0583701l1.14777 0.535768zm-1.2006 0.598827c0,-0.0602638 -0.0488583,-0.109122 -0.109122,-0.109122 -0.0602638,0 -0.109122,0.0488583 -0.109122,0.109122l0 0.289587c0,0.0602638 0.0488583,0.109118 0.109122,0.109118 0.0602638,0 0.109122,-0.0488543 0.109122,-0.109118l0 -0.289587zm1.22102 -1.43926c-0.0602638,0 -0.109122,0.0488583 -0.109122,0.109122 0,0.0602638 0.0488583,0.109122 0.109122,0.109122l0.289583 0c0.0602638,0 0.109122,-0.0488583 0.109122,-0.109122 0,-0.0602638 -0.0488583,-0.109122 -0.109122,-0.109122l-0.289583 0zm-2.94986 0c-0.0602638,0 -0.109122,0.0488583 -0.109122,0.109122 0,0.0602638 0.0488583,0.109122 0.109122,0.109122l0.289587 0c0.0602638,0 0.109122,-0.0488583 0.109122,-0.109122 0,-0.0602638 -0.0488583,-0.109122 -0.109122,-0.109122l-0.289587 0zm1.72884 -1.5106c0,-0.0602638 -0.0488583,-0.109122 -0.109122,-0.109122 -0.0602638,0 -0.109122,0.0488583 -0.109122,0.109122l0 0.289587c0,0.0602638 0.0488583,0.109122 0.109122,0.109122 0.0602638,0 0.109122,-0.0488583 0.109122,-0.109122l0 -0.289587z"/>
   <path id="_253989864" class="fil0" d="M2.22415 2.14646c0,0.0602638 0.0488583,0.109122 0.109122,0.109122 0.0602638,0 0.109122,-0.0488583 0.109122,-0.109122l0 -0.516902 1.55063 0 0 0.516902c0,0.0602638 0.0488583,0.109122 0.109122,0.109122 0.0602638,0 0.109122,-0.0488583 0.109122,-0.109122l0 -0.626024c0,-0.0602638 -0.0488583,-0.109118 -0.109122,-0.109118l-1.76887 0c-0.0602638,0 -0.109122,0.0488543 -0.109122,0.109118l0 0.626024z"/>
   <path id="_253989696" class="fil0" d="M3.2177 0.853335c0.0909173,0 0.173236,0.0368583 0.232819,0.0964409 0.0595827,0.0595866 0.0964449,0.141906 0.0964449,0.232819 0,0.0909094 -0.0368622,0.173228 -0.0964449,0.232815 -0.0595827,0.0595827 -0.141906,0.0964449 -0.232819,0.0964449 -0.0909094,0 -0.173228,-0.0368622 -0.232811,-0.0964449 -0.0595866,-0.0595866 -0.0964449,-0.141906 -0.0964449,-0.232815 0,-0.0909094 0.0368583,-0.173232 0.0964449,-0.232819 0.0595827,-0.0595827 0.141902,-0.0964409 0.232811,-0.0964409z"/>
  </g>
  <rect class="fil1" width="6.82666" height="6.82666"/>
  <rect class="fil1" x="0.853331" y="0.853331" width="5.12" height="5.12"/>
 </g>
</svg>
