<?xml version="1.0" encoding="UTF-8"?>
<!DOCTYPE svg PUBLIC "-//W3C//DTD SVG 1.1//EN" "http://www.w3.org/Graphics/SVG/1.1/DTD/svg11.dtd">
<!-- Creator: CorelDRAW -->
<svg xmlns="http://www.w3.org/2000/svg" xml:space="preserve" width="2048px" height="2048px" style="shape-rendering:geometricPrecision; text-rendering:geometricPrecision; image-rendering:optimizeQuality; fill-rule:evenodd; clip-rule:evenodd"
viewBox="0 0 2048 2048"
 xmlns:xlink="http://www.w3.org/1999/xlink">
 <defs>
  <style type="text/css">
   <![CDATA[
    .fil1 {fill:none}
    .fil0 {fill:#424242}
   ]]>
  </style>
 </defs>
 <g id="Layer_x0020_1">
  <metadata id="CorelCorpID_0Corel-Layer"/>
  <g id="_324847584">
   <path id="_324847392" class="fil0" d="M1675.08 1472.86l0 0zm-169.117 61.5107l0 0zm50.1544 -411.896c36.9048,107.525 106.267,311.398 120.253,345.544 0.734646,1.67953 0.244488,3.70276 -1.29803,4.83189 -20.7862,15.4193 -46.3583,21.2292 -74.6469,27.6555 -29.2276,6.64016 -61.4339,13.9571 -93.5705,33.3709 -0.266929,0.198425 -0.563386,0.366142 -0.891733,0.493701 -4.80355,1.94882 -6.24095,12.6508 -5.71654,18.476 0.422835,4.69016 2.31851,12.8079 7.25434,13.4646 12.4819,1.08662 50.4012,1.47284 91.0997,1.45158 16.0973,-0.00826772 196.95,15.0024 193.347,-36.4701 -1.57087,-22.4386 -19.7563,-64.0252 -39.5882,-111.744 -20.3374,-48.9591 -23.1071,-88.6973 -26.2347,-133.58 -2.91496,-41.8217 -6.14646,-88.1705 -24.4441,-150.636 -25.3418,-86.504 -44.9292,-63.391 -57.9331,-160.049 -4.79174,-35.6126 -9.95316,-78.952 -15.2705,-123.608 -7.63111,-64.0737 -11.9906,-137.668 -19.0618,-186.48 -7.26615,4.07363 -16.6937,9.0378 -27.639,14.8004 -47.2737,24.8906 -123.062,64.7977 -169.472,108.78 9.44174,22.2355 23.0221,53.1874 38.8973,89.3694 30.5126,69.5469 69.5363,158.49 104.697,243.806 0.0850394,0.166536 0.159449,0.340158 0.219685,0.52441z"/>
   <path id="_324847872" class="fil0" d="M1376.82 740.062l0 0zm-0.0106299 -0.00354331l0 0zm-87.3367 -247.478c-5.13662,20.113 -17.6256,82.4186 -6.0189,149.364 6.72402,38.7803 21.5646,79.102 50.6705,113.558 11.5984,-5.84174 35.0658,-18.4205 42.6874,-15.45l0.0153543 -0.00826772 0.53504 0.239764 0.0129921 -0.0141732 0.486615 0.22441c7.19764,3.31181 22.8626,34.0359 27.1642,42.7134 0.644882,-0.366142 1.38307,-0.575197 2.12008,-0.587008 47.2748,-44.6327 123.371,-84.7028 170.891,-109.724 12.8386,-6.75827 23.5807,-12.4158 30.9626,-16.6866 -10.8083,-165.765 -184.834,-213.149 -319.527,-163.629z"/>
   <path id="_324847608" class="fil0" d="M692.063 928.285c-96.0579,16.5898 -103.296,158.43 -80.928,231.127 11.4969,37.3677 33.476,68.354 69.4323,80.778 4.83307,1.67008 19.0347,4.77048 26.6209,6.17717 20.4532,-22.0748 41.5607,-43.5768 63.6437,-64.2284 48.0709,-44.9504 92.4178,-86.4237 138.654,-158.935 -7.5378,-9.15237 -17.165,-18.6165 -28.3252,-27.887 -0.438189,-0.357874 -0.876379,-0.719292 -1.31693,-1.08071 -12.5043,-10.2532 -26.8736,-20.2323 -42.3614,-29.2488 -17.7414,-10.3299 -36.8918,-19.3689 -56.3162,-26.0823 -30.417,-10.5142 -61.5697,-15.3732 -89.1036,-10.6193z"/>
   <path id="_324847968" class="fil0" d="M929.023 928.347l0 0zm0.0649607 -0.0814961l0 0zm0.0555119 -0.0649607l0 0zm1.16929 -0.921261l0 0zm4.08426 0.225591l0 0zm0.0921261 0.0637796l0 0zm0.0779528 0.056693l0 0zm0.0791339 0.0614174l0 0zm0.0814961 0.0649607l0 0zm0.0661418 0.056693l0 0zm0.921261 1.16929l0 0zm0.0472441 0.0921261l0 0zm0.0437008 0.0897638l0 0zm341.772 -419.671c-153.45,41.7083 -503.068,238.583 -481.702,426.325 15.7831,6.23268 31.187,13.8189 45.6284,22.2272 15.0532,8.76497 29.1154,18.4524 41.524,28.4551l45.9756 -58.1256 0.0188977 -0.0236221 0.0649607 -0.0814961 0.0661418 -0.0767717 0.0555119 -0.0614174 0.0129921 -0.0141732 0.0531496 -0.0578741 0.0165354 -0.0177165 0.0519685 -0.0519685 0.0188977 -0.0188977 0.0519685 -0.0484252 0.022441 -0.0212599 0.0496063 -0.046063 0.0744095 -0.0649607 0.0248032 -0.022441 0.0519685 -0.0413386 0.0259843 -0.0212599 0.0519685 -0.0401575 0.0259843 -0.0212599 0.0531496 -0.0389764c0.165354,-0.120473 0.337796,-0.229134 0.526772,-0.327166l0.36378 -0.165354 0.0791339 -0.0307087 0.0165354 -0.00590552 0.165354 -0.056693 0.0259843 -0.00826772 0.0661418 -0.0212599 0.0295276 -0.00826772 0.0625985 -0.0177165 0.034252 -0.00826772 0.0602363 -0.0153543 0.0366142 -0.00826772 0.056693 -0.0129921 0.0389764 -0.00826772 0.0555119 -0.0106299 0.0425197 -0.00826772 0.0519685 -0.00826772 0.0448819 -0.00708662 0.0507874 -0.00708662 0.0472441 -0.00708662 0.0472441 -0.00590552 0.0496063 -0.00472441 0.0448819 -0.00472441 0.0531496 -0.00472441 0.0437008 -0.00354331 0.0531496 -0.00236221 0.0425197 -0.00236221 0.0555119 -0.00236221 0.0413386 -0.0011811 0.0555119 0 0.193701 0.00354331 0.0389764 0.0011811 0.0578741 0.00354331 0.0377953 0.00236221 0.0590552 0.00472441 0.0377953 0.00354331 0.0578741 0.00708662 0.0366142 0.00354331 0.0590552 0.00826772c0.522048,0.0720473 1.03701,0.248032 1.51063,0.531496l0.0200788 0.0129921 0.0661418 0.0413386 0.0153543 0.0106299 0.080315 0.0531496 0.080315 0.0555119 0.0779528 0.056693 0.0791339 0.0614174 0.0814961 0.0649607 0.0767717 0.0661418 0.0625985 0.056693 0.0141732 0.011811 0.0578741 0.0543308 0.0165354 0.0153543 0.0531496 0.0531496 0.0177165 0.0177165 0.0496063 0.0519685 0.0200788 0.022441 0.0472441 0.0507874 0.0649607 0.0744095 0.0212599 0.0236221 0.0425197 0.0519685 0.0200788 0.0259843 0.0425197 0.0531496 0.0188977 0.0248032 0.0401575 0.0543308 0.222047 0.337796 0.0106299 0.0165354 0.0933072 0.17126 0.0448819 0.0862205 0.0437008 0.0921261c8.38111,17.1425 8.80394,33.3603 4.67126,49.187 -4.0441,15.4984 -12.4406,30.4547 -21.9248,45.5197 -0.158268,0.250394 -0.314173,0.500788 -0.47126,0.748819 -0.116929,0.229134 -0.255118,0.447638 -0.413386,0.65315 -47.2607,74.7024 -92.3989,116.915 -141.371,162.71 -105.46,98.6186 -188.575,216.749 -284.626,324.011 -8.22166,9.17599 -10.2473,11.4307 -20.2453,9.40867 -33.1796,-0.692127 -79.9855,0.464174 -121.015,4.87087 -30.7784,3.30709 -58.1658,8.42009 -73.7292,15.9106 -13.9902,6.73465 -35.2878,22.4103 -6.06378,24.8091 35.5961,2.92205 80.0812,5.28662 118.116,6.38623 35.1532,1.01575 64.8615,0.970867 77.0115,-0.688583 16.9914,-2.32087 31.7859,-8.18268 48.7701,-18.3957 17.204,-10.3453 36.7477,-25.2177 62.9847,-45.3591 95.7768,-90.5304 451.605,-396.783 478.368,-501.735 7.82008,-30.6626 10.5378,-66.4406 3.25985,-104.117 -0.34252,-1.7941 0.568111,-3.53977 2.11772,-4.32874l259.001 -147.769c-25.0949,-33.4217 -38.3929,-71.2323 -44.713,-107.692 -9.30709,-53.6835 -3.45118,-104.473 2.04213,-133.806z"/>
  </g>
 </g>
 <rect class="fil1" width="2048" height="2048"/>
</svg>
